<mxfile host="app.diagrams.net" modified="2023-08-25T09:37:59.185Z" agent="Mozilla/5.0 (Macintosh; Intel Mac OS X 10_15_7) AppleWebKit/537.36 (KHTML, like Gecko) Chrome/116.0.0.0 Safari/537.36" etag="evKjTpwauRMTa0n75s0r" version="21.6.9" type="github">
  <diagram id="3228e29e-7158-1315-38df-8450db1d8a1d" name="Page-1">
    <mxGraphModel dx="1914" dy="2032" grid="1" gridSize="10" guides="1" tooltips="1" connect="1" arrows="1" fold="1" page="1" pageScale="1" pageWidth="330" pageHeight="350" background="#ffffff" math="0" shadow="1">
      <root>
        <mxCell id="0" />
        <mxCell id="1" parent="0" />
        <mxCell id="A2b7am4R7C74YgaemaHo-4" value="" style="rounded=1;whiteSpace=wrap;html=1;fillColor=#5A6EAB;" parent="1" vertex="1">
          <mxGeometry x="-970" y="-120" width="390" height="440" as="geometry" />
        </mxCell>
        <mxCell id="A2b7am4R7C74YgaemaHo-7" value="&lt;font style=&quot;font-size: 30px&quot; color=&quot;#ffffff&quot;&gt;路由选择&lt;br&gt;处理器&lt;/font&gt;" style="rounded=1;whiteSpace=wrap;html=1;fillColor=#A59126;" parent="1" vertex="1">
          <mxGeometry x="-890" y="20" width="230" height="150" as="geometry" />
        </mxCell>
        <mxCell id="2FnHlDQc3e_-eUdSoOCG-1" value="" style="rounded=1;whiteSpace=wrap;html=1;fillColor=#535e80;" parent="1" vertex="1">
          <mxGeometry x="-580" y="-120" width="516" height="430" as="geometry" />
        </mxCell>
        <mxCell id="2Wd3UBVozqNLlvINTNh1-11" style="edgeStyle=orthogonalEdgeStyle;rounded=0;orthogonalLoop=1;jettySize=auto;html=1;exitX=0;exitY=0.5;exitDx=0;exitDy=0;entryX=0.833;entryY=0.095;entryDx=0;entryDy=0;entryPerimeter=0;endArrow=none;endFill=0;strokeWidth=5;shape=link;" parent="1" target="2FnHlDQc3e_-eUdSoOCG-6" edge="1">
          <mxGeometry relative="1" as="geometry">
            <mxPoint x="-477" y="-20" as="sourcePoint" />
          </mxGeometry>
        </mxCell>
        <mxCell id="2Wd3UBVozqNLlvINTNh1-9" style="edgeStyle=orthogonalEdgeStyle;rounded=0;orthogonalLoop=1;jettySize=auto;html=1;exitX=0;exitY=0.5;exitDx=0;exitDy=0;endArrow=none;endFill=0;shape=link;strokeWidth=5;" parent="1" source="2Wd3UBVozqNLlvINTNh1-5" edge="1">
          <mxGeometry relative="1" as="geometry">
            <mxPoint x="-377" y="-20" as="targetPoint" />
          </mxGeometry>
        </mxCell>
        <mxCell id="2Wd3UBVozqNLlvINTNh1-5" value="&lt;font style=&quot;font-size: 25px&quot;&gt;MAC&lt;/font&gt;" style="rounded=1;whiteSpace=wrap;html=1;fillColor=#A0ACDE;" parent="1" vertex="1">
          <mxGeometry x="-352" y="-47.5" width="100" height="55" as="geometry" />
        </mxCell>
        <mxCell id="fYc7Ru6buci-YKz5Eo-_-4" value="&lt;span style=&quot;font-size: 30px&quot;&gt;路由器&lt;/span&gt;" style="text;html=1;strokeColor=none;fillColor=none;align=center;verticalAlign=middle;whiteSpace=wrap;rounded=0;" parent="1" vertex="1">
          <mxGeometry x="-631.67" y="-310" width="100" height="31" as="geometry" />
        </mxCell>
        <mxCell id="2FnHlDQc3e_-eUdSoOCG-2" value="&lt;font style=&quot;font-size: 20px&quot;&gt;A网口&lt;/font&gt;" style="rounded=1;whiteSpace=wrap;html=1;fillColor=#9AC7BF;strokeColor=#9AC7BF;dashed=1;strokeWidth=3;" parent="1" vertex="1">
          <mxGeometry x="-94" y="-50" width="60" height="60" as="geometry" />
        </mxCell>
        <mxCell id="2FnHlDQc3e_-eUdSoOCG-4" value="" style="rounded=1;whiteSpace=wrap;html=1;fillColor=#9AC7BF;strokeColor=#9AC7BF;strokeWidth=3;dashed=1;" parent="1" vertex="1">
          <mxGeometry x="-94" y="120" width="60" height="60" as="geometry" />
        </mxCell>
        <mxCell id="2FnHlDQc3e_-eUdSoOCG-5" value="" style="rounded=1;whiteSpace=wrap;html=1;fillColor=#9AC7BF;strokeColor=#9AC7BF;strokeWidth=3;dashed=1;" parent="1" vertex="1">
          <mxGeometry x="-94" y="210" width="60" height="60" as="geometry" />
        </mxCell>
        <mxCell id="2FnHlDQc3e_-eUdSoOCG-6" value="&lt;span style=&quot;font-size: 30px&quot;&gt;&lt;font color=&quot;#ffffff&quot;&gt;交换结构&lt;/font&gt;&lt;/span&gt;" style="rounded=1;whiteSpace=wrap;html=1;fillColor=#A59126;" parent="1" vertex="1">
          <mxGeometry x="-567" y="-50" width="60" height="315" as="geometry" />
        </mxCell>
        <mxCell id="2FnHlDQc3e_-eUdSoOCG-10" style="edgeStyle=orthogonalEdgeStyle;rounded=0;orthogonalLoop=1;jettySize=auto;html=1;exitX=1;exitY=0.5;exitDx=0;exitDy=0;entryX=0;entryY=0.5;entryDx=0;entryDy=0;endArrow=none;endFill=0;strokeWidth=5;shape=link;" parent="1" source="2FnHlDQc3e_-eUdSoOCG-7" target="2FnHlDQc3e_-eUdSoOCG-2" edge="1">
          <mxGeometry relative="1" as="geometry" />
        </mxCell>
        <mxCell id="2Wd3UBVozqNLlvINTNh1-8" style="edgeStyle=orthogonalEdgeStyle;rounded=0;orthogonalLoop=1;jettySize=auto;html=1;exitX=0;exitY=0.5;exitDx=0;exitDy=0;entryX=1;entryY=0.5;entryDx=0;entryDy=0;endArrow=none;endFill=0;strokeWidth=5;shape=link;" parent="1" source="2FnHlDQc3e_-eUdSoOCG-7" target="2Wd3UBVozqNLlvINTNh1-5" edge="1">
          <mxGeometry relative="1" as="geometry" />
        </mxCell>
        <mxCell id="2FnHlDQc3e_-eUdSoOCG-7" value="&lt;font style=&quot;font-size: 25px&quot;&gt;PHY&lt;/font&gt;" style="rounded=1;whiteSpace=wrap;html=1;fillColor=#A0ACDE;" parent="1" vertex="1">
          <mxGeometry x="-222" y="-47.5" width="100" height="55" as="geometry" />
        </mxCell>
        <mxCell id="2FnHlDQc3e_-eUdSoOCG-12" value="&lt;span style=&quot;font-size: 20px&quot;&gt;B网口&lt;/span&gt;" style="rounded=1;whiteSpace=wrap;html=1;fillColor=#9AC7BF;strokeWidth=3;dashed=1;strokeColor=#9AC7BF;" parent="1" vertex="1">
          <mxGeometry x="-93.00999999999999" y="40" width="60" height="60" as="geometry" />
        </mxCell>
        <mxCell id="2FnHlDQc3e_-eUdSoOCG-13" style="edgeStyle=orthogonalEdgeStyle;rounded=0;orthogonalLoop=1;jettySize=auto;html=1;exitX=1;exitY=0.5;exitDx=0;exitDy=0;entryX=0;entryY=0.5;entryDx=0;entryDy=0;endArrow=none;endFill=0;strokeWidth=5;shape=link;" parent="1" source="2FnHlDQc3e_-eUdSoOCG-15" target="2FnHlDQc3e_-eUdSoOCG-12" edge="1">
          <mxGeometry relative="1" as="geometry" />
        </mxCell>
        <mxCell id="2FnHlDQc3e_-eUdSoOCG-15" value="&lt;font style=&quot;font-size: 25px&quot;&gt;PHY&lt;/font&gt;" style="rounded=1;whiteSpace=wrap;html=1;fillColor=#A0ACDE;" parent="1" vertex="1">
          <mxGeometry x="-221.01" y="42.5" width="100" height="55" as="geometry" />
        </mxCell>
        <mxCell id="2FnHlDQc3e_-eUdSoOCG-16" value="&lt;span style=&quot;font-size: 20px&quot;&gt;C网口&lt;/span&gt;" style="rounded=1;whiteSpace=wrap;html=1;fillColor=#9AC7BF;strokeColor=#9AC7BF;strokeWidth=3;dashed=1;" parent="1" vertex="1">
          <mxGeometry x="-94" y="120" width="60" height="60" as="geometry" />
        </mxCell>
        <mxCell id="2FnHlDQc3e_-eUdSoOCG-17" style="edgeStyle=orthogonalEdgeStyle;rounded=0;orthogonalLoop=1;jettySize=auto;html=1;exitX=1;exitY=0.5;exitDx=0;exitDy=0;entryX=0;entryY=0.5;entryDx=0;entryDy=0;endArrow=none;endFill=0;strokeWidth=5;shape=link;" parent="1" source="2FnHlDQc3e_-eUdSoOCG-19" target="2FnHlDQc3e_-eUdSoOCG-16" edge="1">
          <mxGeometry relative="1" as="geometry" />
        </mxCell>
        <mxCell id="2FnHlDQc3e_-eUdSoOCG-19" value="&lt;font style=&quot;font-size: 25px&quot;&gt;PHY&lt;/font&gt;" style="rounded=1;whiteSpace=wrap;html=1;fillColor=#A0ACDE;" parent="1" vertex="1">
          <mxGeometry x="-222" y="122.5" width="100" height="55" as="geometry" />
        </mxCell>
        <mxCell id="2FnHlDQc3e_-eUdSoOCG-20" value="&lt;span style=&quot;font-size: 20px&quot;&gt;D网口&lt;/span&gt;" style="rounded=1;whiteSpace=wrap;html=1;fillColor=#9AC7BF;strokeColor=#9AC7BF;strokeWidth=3;dashed=1;" parent="1" vertex="1">
          <mxGeometry x="-94" y="210" width="60" height="60" as="geometry" />
        </mxCell>
        <mxCell id="2FnHlDQc3e_-eUdSoOCG-21" style="edgeStyle=orthogonalEdgeStyle;rounded=0;orthogonalLoop=1;jettySize=auto;html=1;exitX=1;exitY=0.5;exitDx=0;exitDy=0;entryX=0;entryY=0.5;entryDx=0;entryDy=0;endArrow=none;endFill=0;strokeWidth=5;shape=link;" parent="1" source="2FnHlDQc3e_-eUdSoOCG-23" target="2FnHlDQc3e_-eUdSoOCG-20" edge="1">
          <mxGeometry relative="1" as="geometry" />
        </mxCell>
        <mxCell id="2FnHlDQc3e_-eUdSoOCG-23" value="&lt;font style=&quot;font-size: 25px&quot;&gt;PHY&lt;/font&gt;" style="rounded=1;whiteSpace=wrap;html=1;fillColor=#A0ACDE;" parent="1" vertex="1">
          <mxGeometry x="-222" y="212.5" width="100" height="55" as="geometry" />
        </mxCell>
        <mxCell id="2FnHlDQc3e_-eUdSoOCG-25" value="" style="shape=flexArrow;endArrow=classic;html=1;strokeWidth=5;endWidth=33;endSize=8.67;width=27;strokeColor=#6DB5A8;fillColor=#6DB5A8;" parent="1" edge="1">
          <mxGeometry width="50" height="50" relative="1" as="geometry">
            <mxPoint x="-582.17" y="-210" as="sourcePoint" />
            <mxPoint x="-582.17" y="-150" as="targetPoint" />
          </mxGeometry>
        </mxCell>
        <mxCell id="2FnHlDQc3e_-eUdSoOCG-29" value="" style="endArrow=none;dashed=1;html=1;strokeWidth=5;fillColor=#6DB5A8;exitX=0.174;exitY=0.875;exitDx=0;exitDy=0;exitPerimeter=0;strokeColor=#FFFFFF;" parent="1" edge="1">
          <mxGeometry width="50" height="50" relative="1" as="geometry">
            <mxPoint x="-679.95" y="256" as="sourcePoint" />
            <mxPoint x="-680" y="-10" as="targetPoint" />
          </mxGeometry>
        </mxCell>
        <mxCell id="2Wd3UBVozqNLlvINTNh1-17" style="edgeStyle=orthogonalEdgeStyle;shape=link;rounded=0;orthogonalLoop=1;jettySize=auto;html=1;exitX=0;exitY=0.5;exitDx=0;exitDy=0;entryX=1;entryY=0.378;entryDx=0;entryDy=0;entryPerimeter=0;startArrow=classic;startFill=1;endArrow=none;endFill=0;strokeWidth=5;" parent="1" target="2FnHlDQc3e_-eUdSoOCG-6" edge="1">
          <mxGeometry relative="1" as="geometry">
            <mxPoint x="-476.01" y="70" as="sourcePoint" />
          </mxGeometry>
        </mxCell>
        <mxCell id="2Wd3UBVozqNLlvINTNh1-14" style="edgeStyle=orthogonalEdgeStyle;rounded=0;orthogonalLoop=1;jettySize=auto;html=1;exitX=0;exitY=0.5;exitDx=0;exitDy=0;endArrow=none;endFill=0;shape=link;strokeWidth=5;" parent="1" source="2Wd3UBVozqNLlvINTNh1-15" edge="1">
          <mxGeometry relative="1" as="geometry">
            <mxPoint x="-376.01" y="70" as="targetPoint" />
          </mxGeometry>
        </mxCell>
        <mxCell id="2Wd3UBVozqNLlvINTNh1-15" value="&lt;font style=&quot;font-size: 25px&quot;&gt;MAC&lt;/font&gt;" style="rounded=1;whiteSpace=wrap;html=1;fillColor=#A0ACDE;" parent="1" vertex="1">
          <mxGeometry x="-351.01" y="42.5" width="100" height="55" as="geometry" />
        </mxCell>
        <mxCell id="2Wd3UBVozqNLlvINTNh1-16" style="edgeStyle=orthogonalEdgeStyle;rounded=0;orthogonalLoop=1;jettySize=auto;html=1;exitX=0;exitY=0.5;exitDx=0;exitDy=0;entryX=1;entryY=0.5;entryDx=0;entryDy=0;endArrow=none;endFill=0;strokeWidth=5;shape=link;" parent="1" target="2Wd3UBVozqNLlvINTNh1-15" edge="1">
          <mxGeometry relative="1" as="geometry">
            <mxPoint x="-221.01" y="70" as="sourcePoint" />
          </mxGeometry>
        </mxCell>
        <mxCell id="2Wd3UBVozqNLlvINTNh1-18" style="edgeStyle=orthogonalEdgeStyle;shape=link;rounded=0;orthogonalLoop=1;jettySize=auto;html=1;exitX=0;exitY=0.5;exitDx=0;exitDy=0;entryX=1;entryY=0.378;entryDx=0;entryDy=0;entryPerimeter=0;startArrow=classic;startFill=1;endArrow=none;endFill=0;strokeWidth=5;" parent="1" edge="1">
          <mxGeometry relative="1" as="geometry">
            <mxPoint x="-507" y="151.57000000000005" as="targetPoint" />
            <mxPoint x="-476.01" y="152.5" as="sourcePoint" />
          </mxGeometry>
        </mxCell>
        <mxCell id="2Wd3UBVozqNLlvINTNh1-20" style="edgeStyle=orthogonalEdgeStyle;rounded=0;orthogonalLoop=1;jettySize=auto;html=1;exitX=0;exitY=0.5;exitDx=0;exitDy=0;endArrow=none;endFill=0;shape=link;strokeWidth=5;" parent="1" source="2Wd3UBVozqNLlvINTNh1-21" edge="1">
          <mxGeometry relative="1" as="geometry">
            <mxPoint x="-376.01" y="152.5" as="targetPoint" />
          </mxGeometry>
        </mxCell>
        <mxCell id="2Wd3UBVozqNLlvINTNh1-21" value="&lt;font style=&quot;font-size: 25px&quot;&gt;MAC&lt;/font&gt;" style="rounded=1;whiteSpace=wrap;html=1;fillColor=#A0ACDE;" parent="1" vertex="1">
          <mxGeometry x="-351.01" y="125" width="100" height="55" as="geometry" />
        </mxCell>
        <mxCell id="2Wd3UBVozqNLlvINTNh1-22" style="edgeStyle=orthogonalEdgeStyle;rounded=0;orthogonalLoop=1;jettySize=auto;html=1;exitX=0;exitY=0.5;exitDx=0;exitDy=0;entryX=1;entryY=0.5;entryDx=0;entryDy=0;endArrow=none;endFill=0;strokeWidth=5;shape=link;" parent="1" target="2Wd3UBVozqNLlvINTNh1-21" edge="1">
          <mxGeometry relative="1" as="geometry">
            <mxPoint x="-221.01" y="152.5" as="sourcePoint" />
          </mxGeometry>
        </mxCell>
        <mxCell id="2Wd3UBVozqNLlvINTNh1-23" style="edgeStyle=orthogonalEdgeStyle;shape=link;rounded=0;orthogonalLoop=1;jettySize=auto;html=1;exitX=0;exitY=0.5;exitDx=0;exitDy=0;entryX=1;entryY=0.378;entryDx=0;entryDy=0;entryPerimeter=0;startArrow=classic;startFill=1;endArrow=none;endFill=0;strokeWidth=5;" parent="1" edge="1">
          <mxGeometry relative="1" as="geometry">
            <mxPoint x="-507" y="239.07000000000005" as="targetPoint" />
            <mxPoint x="-476.01" y="240" as="sourcePoint" />
          </mxGeometry>
        </mxCell>
        <mxCell id="2Wd3UBVozqNLlvINTNh1-25" style="edgeStyle=orthogonalEdgeStyle;rounded=0;orthogonalLoop=1;jettySize=auto;html=1;exitX=0;exitY=0.5;exitDx=0;exitDy=0;endArrow=none;endFill=0;shape=link;strokeWidth=5;" parent="1" source="2Wd3UBVozqNLlvINTNh1-26" edge="1">
          <mxGeometry relative="1" as="geometry">
            <mxPoint x="-376.01" y="240" as="targetPoint" />
          </mxGeometry>
        </mxCell>
        <mxCell id="2Wd3UBVozqNLlvINTNh1-26" value="&lt;font style=&quot;font-size: 25px&quot;&gt;MAC&lt;/font&gt;" style="rounded=1;whiteSpace=wrap;html=1;fillColor=#A0ACDE;" parent="1" vertex="1">
          <mxGeometry x="-351.01" y="212.5" width="100" height="55" as="geometry" />
        </mxCell>
        <mxCell id="2Wd3UBVozqNLlvINTNh1-27" style="edgeStyle=orthogonalEdgeStyle;rounded=0;orthogonalLoop=1;jettySize=auto;html=1;exitX=0;exitY=0.5;exitDx=0;exitDy=0;entryX=1;entryY=0.5;entryDx=0;entryDy=0;endArrow=none;endFill=0;strokeWidth=5;shape=link;" parent="1" target="2Wd3UBVozqNLlvINTNh1-26" edge="1">
          <mxGeometry relative="1" as="geometry">
            <mxPoint x="-221.01" y="240" as="sourcePoint" />
          </mxGeometry>
        </mxCell>
        <mxCell id="A2b7am4R7C74YgaemaHo-2" value="" style="fontColor=#0066CC;verticalAlign=top;verticalLabelPosition=bottom;labelPosition=center;align=center;html=1;outlineConnect=0;gradientColor=none;gradientDirection=north;strokeWidth=2;shape=mxgraph.networks.router;fillColor=#5A6EAB;fontSize=30;" parent="1" vertex="1">
          <mxGeometry x="-650" y="-270" width="133.33" height="40" as="geometry" />
        </mxCell>
        <mxCell id="A2b7am4R7C74YgaemaHo-5" value="&lt;font style=&quot;font-size: 30px&quot;&gt;数据平面（硬件部分）&lt;/font&gt;" style="text;html=1;strokeColor=none;fillColor=none;align=center;verticalAlign=middle;whiteSpace=wrap;rounded=0;fontColor=#FFFFFF;" parent="1" vertex="1">
          <mxGeometry x="-456.01" y="-100" width="310" height="20" as="geometry" />
        </mxCell>
        <mxCell id="A2b7am4R7C74YgaemaHo-6" value="&lt;font style=&quot;font-size: 30px&quot;&gt;控制平面（软件部分）&lt;/font&gt;" style="text;html=1;strokeColor=none;fillColor=none;align=center;verticalAlign=middle;whiteSpace=wrap;rounded=0;fontColor=#FFFFFF;" parent="1" vertex="1">
          <mxGeometry x="-930" y="-95" width="310" height="20" as="geometry" />
        </mxCell>
        <mxCell id="7CKJjCA0ST_tBDK8_afC-1" value="&lt;font style=&quot;font-size: 25px&quot;&gt;内存&lt;/font&gt;" style="rounded=1;whiteSpace=wrap;html=1;fillColor=#A0ACDE;" vertex="1" parent="1">
          <mxGeometry x="-478" y="-47.5" width="100" height="317.5" as="geometry" />
        </mxCell>
        <mxCell id="2FnHlDQc3e_-eUdSoOCG-32" value="" style="endArrow=classic;dashed=1;html=1;strokeWidth=5;fillColor=#6DB5A8;startArrow=none;startFill=0;endFill=1;exitX=0.769;exitY=0.886;exitDx=0;exitDy=0;exitPerimeter=0;strokeColor=#FFFFFF;" parent="1" edge="1">
          <mxGeometry width="50" height="50" relative="1" as="geometry">
            <mxPoint x="-670.0899999999999" y="259.8399999999999" as="sourcePoint" />
            <mxPoint x="-60" y="260" as="targetPoint" />
          </mxGeometry>
        </mxCell>
        <mxCell id="2FnHlDQc3e_-eUdSoOCG-27" value="" style="endArrow=none;dashed=1;html=1;strokeWidth=5;fillColor=#6DB5A8;startArrow=classic;startFill=1;strokeColor=#FFFFFF;" parent="1" edge="1">
          <mxGeometry width="50" height="50" relative="1" as="geometry">
            <mxPoint x="-680" as="sourcePoint" />
            <mxPoint x="-44" as="targetPoint" />
          </mxGeometry>
        </mxCell>
      </root>
    </mxGraphModel>
  </diagram>
</mxfile>
